<svg id="visual" viewBox="0 0 900 600" width="900" height="600" xmlns="http://www.w3.org/2000/svg" xmlns:xlink="http://www.w3.org/1999/xlink" version="1.1"><rect x="0" y="0" width="900" height="600" fill="#001220"></rect><defs><linearGradient id="grad1_0" x1="33.3%" y1="0%" x2="100%" y2="100%"><stop offset="20%" stop-color="#001220" stop-opacity="1"></stop><stop offset="80%" stop-color="#001220" stop-opacity="1"></stop></linearGradient></defs><defs><linearGradient id="grad2_0" x1="0%" y1="0%" x2="66.7%" y2="100%"><stop offset="20%" stop-color="#001220" stop-opacity="1"></stop><stop offset="80%" stop-color="#001220" stop-opacity="1"></stop></linearGradient></defs><g transform="translate(900, 0)"><path d="M0 486.7C-39.9 427 -79.9 367.3 -146.6 353.8C-213.2 340.4 -306.6 373.2 -344.2 344.2C-381.7 315.1 -363.4 224.2 -377.9 156.5C-392.3 88.8 -439.5 44.4 -486.7 0L0 0Z" fill="#e65d5d"></path></g><g transform="translate(0, 600)"><path d="M0 -486.7C78.8 -497 157.6 -507.3 186.3 -449.7C214.9 -392.1 193.5 -266.8 208.6 -208.6C223.7 -150.4 275.5 -159.4 328 -135.9C380.4 -112.3 433.6 -56.1 486.7 0L0 0Z" fill="#e65d5d"></path></g></svg>